<mxfile host="app.diagrams.net" agent="Mozilla/5.0 (Windows NT 10.0; Win64; x64) AppleWebKit/537.36 (KHTML, like Gecko) Chrome/136.0.0.0 Safari/537.36" version="26.3.0">
  <diagram name="Page-1" id="g04eaq3tGOwarItSjBhp">
    <mxGraphModel dx="881" dy="1201" grid="0" gridSize="10" guides="1" tooltips="1" connect="1" arrows="1" fold="1" page="0" pageScale="1" pageWidth="850" pageHeight="1100" math="0" shadow="0">
      <root>
        <mxCell id="0" />
        <mxCell id="1" parent="0" />
        <mxCell id="dxI1CbYiC7R-kg2dkJQ_-17" value="1" style="edgeStyle=none;curved=1;rounded=0;orthogonalLoop=1;jettySize=auto;html=1;exitX=1;exitY=1;exitDx=0;exitDy=0;entryX=0;entryY=0.5;entryDx=0;entryDy=0;fontSize=12;endArrow=none;startFill=0;shape=link;" edge="1" parent="1" source="dxI1CbYiC7R-kg2dkJQ_-1" target="dxI1CbYiC7R-kg2dkJQ_-15">
          <mxGeometry relative="1" as="geometry" />
        </mxCell>
        <mxCell id="dxI1CbYiC7R-kg2dkJQ_-1" value="Branches" style="whiteSpace=wrap;html=1;align=center;" vertex="1" parent="1">
          <mxGeometry x="54" y="25" width="100" height="40" as="geometry" />
        </mxCell>
        <mxCell id="dxI1CbYiC7R-kg2dkJQ_-64" style="edgeStyle=none;curved=1;rounded=0;orthogonalLoop=1;jettySize=auto;html=1;exitX=0;exitY=1;exitDx=0;exitDy=0;entryX=1;entryY=0.5;entryDx=0;entryDy=0;fontSize=12;startSize=8;endSize=8;endArrow=none;startFill=0;" edge="1" parent="1" source="dxI1CbYiC7R-kg2dkJQ_-2" target="dxI1CbYiC7R-kg2dkJQ_-41">
          <mxGeometry relative="1" as="geometry" />
        </mxCell>
        <mxCell id="dxI1CbYiC7R-kg2dkJQ_-81" value="M" style="edgeLabel;html=1;align=center;verticalAlign=middle;resizable=0;points=[];fontSize=12;" vertex="1" connectable="0" parent="dxI1CbYiC7R-kg2dkJQ_-64">
          <mxGeometry x="-0.7368" y="5" relative="1" as="geometry">
            <mxPoint x="-8" y="-4" as="offset" />
          </mxGeometry>
        </mxCell>
        <mxCell id="dxI1CbYiC7R-kg2dkJQ_-2" value="Rooms" style="whiteSpace=wrap;html=1;align=center;" vertex="1" parent="1">
          <mxGeometry x="298" y="111" width="100" height="40" as="geometry" />
        </mxCell>
        <mxCell id="dxI1CbYiC7R-kg2dkJQ_-3" value="Customer" style="whiteSpace=wrap;html=1;align=center;" vertex="1" parent="1">
          <mxGeometry x="59" y="290" width="100" height="40" as="geometry" />
        </mxCell>
        <mxCell id="dxI1CbYiC7R-kg2dkJQ_-6" value="Staff" style="whiteSpace=wrap;html=1;align=center;" vertex="1" parent="1">
          <mxGeometry x="-145" y="128" width="100" height="40" as="geometry" />
        </mxCell>
        <mxCell id="dxI1CbYiC7R-kg2dkJQ_-8" value="Name" style="ellipse;whiteSpace=wrap;html=1;align=center;" vertex="1" parent="1">
          <mxGeometry x="48" y="-39" width="100" height="40" as="geometry" />
        </mxCell>
        <mxCell id="dxI1CbYiC7R-kg2dkJQ_-14" style="edgeStyle=none;curved=1;rounded=0;orthogonalLoop=1;jettySize=auto;html=1;exitX=1;exitY=1;exitDx=0;exitDy=0;entryX=0;entryY=0;entryDx=0;entryDy=0;fontSize=12;startSize=8;endSize=8;" edge="1" parent="1" source="dxI1CbYiC7R-kg2dkJQ_-9" target="dxI1CbYiC7R-kg2dkJQ_-1">
          <mxGeometry relative="1" as="geometry" />
        </mxCell>
        <mxCell id="dxI1CbYiC7R-kg2dkJQ_-9" value="B_Id" style="ellipse;whiteSpace=wrap;html=1;align=center;fontStyle=4" vertex="1" parent="1">
          <mxGeometry x="-58" y="-25" width="100" height="40" as="geometry" />
        </mxCell>
        <mxCell id="dxI1CbYiC7R-kg2dkJQ_-12" style="edgeStyle=none;curved=1;rounded=0;orthogonalLoop=1;jettySize=auto;html=1;exitX=0.23;exitY=0.9;exitDx=0;exitDy=0;entryX=1;entryY=0;entryDx=0;entryDy=0;fontSize=12;startSize=8;endSize=8;exitPerimeter=0;" edge="1" parent="1" source="dxI1CbYiC7R-kg2dkJQ_-39" target="dxI1CbYiC7R-kg2dkJQ_-1">
          <mxGeometry relative="1" as="geometry">
            <mxPoint x="167.64466094067257" y="0.1421356237310647" as="sourcePoint" />
          </mxGeometry>
        </mxCell>
        <mxCell id="dxI1CbYiC7R-kg2dkJQ_-11" value="S_ID" style="ellipse;whiteSpace=wrap;html=1;align=center;fontStyle=4" vertex="1" parent="1">
          <mxGeometry x="-200" y="58" width="100" height="40" as="geometry" />
        </mxCell>
        <mxCell id="dxI1CbYiC7R-kg2dkJQ_-13" style="edgeStyle=none;curved=1;rounded=0;orthogonalLoop=1;jettySize=auto;html=1;exitX=0.5;exitY=1;exitDx=0;exitDy=0;entryX=0.43;entryY=-0.05;entryDx=0;entryDy=0;entryPerimeter=0;fontSize=12;startSize=8;endSize=8;" edge="1" parent="1" source="dxI1CbYiC7R-kg2dkJQ_-8" target="dxI1CbYiC7R-kg2dkJQ_-1">
          <mxGeometry relative="1" as="geometry" />
        </mxCell>
        <mxCell id="dxI1CbYiC7R-kg2dkJQ_-16" style="edgeStyle=none;curved=1;rounded=0;orthogonalLoop=1;jettySize=auto;html=1;exitX=1;exitY=1;exitDx=0;exitDy=0;entryX=0;entryY=0.25;entryDx=0;entryDy=0;fontSize=12;startSize=8;endSize=8;endArrow=none;startFill=0;" edge="1" parent="1" source="dxI1CbYiC7R-kg2dkJQ_-15" target="dxI1CbYiC7R-kg2dkJQ_-2">
          <mxGeometry relative="1" as="geometry" />
        </mxCell>
        <mxCell id="dxI1CbYiC7R-kg2dkJQ_-80" value="M" style="edgeLabel;html=1;align=center;verticalAlign=middle;resizable=0;points=[];fontSize=12;" vertex="1" connectable="0" parent="dxI1CbYiC7R-kg2dkJQ_-16">
          <mxGeometry x="-0.0194" y="1" relative="1" as="geometry">
            <mxPoint as="offset" />
          </mxGeometry>
        </mxCell>
        <mxCell id="dxI1CbYiC7R-kg2dkJQ_-15" value="Has" style="shape=rhombus;perimeter=rhombusPerimeter;whiteSpace=wrap;html=1;align=center;" vertex="1" parent="1">
          <mxGeometry x="193" y="65" width="76" height="46" as="geometry" />
        </mxCell>
        <mxCell id="dxI1CbYiC7R-kg2dkJQ_-25" style="edgeStyle=none;curved=1;rounded=0;orthogonalLoop=1;jettySize=auto;html=1;exitX=0;exitY=0.5;exitDx=0;exitDy=0;entryX=1;entryY=0.5;entryDx=0;entryDy=0;fontSize=12;startSize=8;endSize=8;" edge="1" parent="1" source="dxI1CbYiC7R-kg2dkJQ_-19" target="dxI1CbYiC7R-kg2dkJQ_-2">
          <mxGeometry relative="1" as="geometry" />
        </mxCell>
        <mxCell id="dxI1CbYiC7R-kg2dkJQ_-19" value="Type" style="ellipse;whiteSpace=wrap;html=1;align=center;" vertex="1" parent="1">
          <mxGeometry x="430" y="109" width="100" height="40" as="geometry" />
        </mxCell>
        <mxCell id="dxI1CbYiC7R-kg2dkJQ_-24" style="edgeStyle=none;curved=1;rounded=0;orthogonalLoop=1;jettySize=auto;html=1;exitX=0;exitY=1;exitDx=0;exitDy=0;entryX=1;entryY=0;entryDx=0;entryDy=0;fontSize=12;startSize=8;endSize=8;" edge="1" parent="1" source="dxI1CbYiC7R-kg2dkJQ_-20" target="dxI1CbYiC7R-kg2dkJQ_-2">
          <mxGeometry relative="1" as="geometry" />
        </mxCell>
        <mxCell id="dxI1CbYiC7R-kg2dkJQ_-20" value="R_Num" style="ellipse;whiteSpace=wrap;html=1;align=center;fontStyle=4" vertex="1" parent="1">
          <mxGeometry x="401" y="54" width="100" height="40" as="geometry" />
        </mxCell>
        <mxCell id="dxI1CbYiC7R-kg2dkJQ_-22" style="edgeStyle=none;curved=1;rounded=0;orthogonalLoop=1;jettySize=auto;html=1;exitX=0;exitY=0;exitDx=0;exitDy=0;entryX=1;entryY=1;entryDx=0;entryDy=0;fontSize=12;startSize=8;endSize=8;" edge="1" parent="1" source="dxI1CbYiC7R-kg2dkJQ_-21" target="dxI1CbYiC7R-kg2dkJQ_-2">
          <mxGeometry relative="1" as="geometry" />
        </mxCell>
        <mxCell id="dxI1CbYiC7R-kg2dkJQ_-21" value="Nightly Rate" style="ellipse;whiteSpace=wrap;html=1;align=center;dashed=1;" vertex="1" parent="1">
          <mxGeometry x="401" y="162" width="100" height="40" as="geometry" />
        </mxCell>
        <mxCell id="dxI1CbYiC7R-kg2dkJQ_-31" value="Name" style="ellipse;whiteSpace=wrap;html=1;align=center;" vertex="1" parent="1">
          <mxGeometry x="46" y="370" width="100" height="40" as="geometry" />
        </mxCell>
        <mxCell id="dxI1CbYiC7R-kg2dkJQ_-35" style="edgeStyle=none;curved=1;rounded=0;orthogonalLoop=1;jettySize=auto;html=1;exitX=1;exitY=0;exitDx=0;exitDy=0;entryX=0;entryY=1;entryDx=0;entryDy=0;fontSize=12;startSize=8;endSize=8;" edge="1" parent="1" source="dxI1CbYiC7R-kg2dkJQ_-32" target="dxI1CbYiC7R-kg2dkJQ_-3">
          <mxGeometry relative="1" as="geometry" />
        </mxCell>
        <mxCell id="dxI1CbYiC7R-kg2dkJQ_-32" value="C_ID" style="ellipse;whiteSpace=wrap;html=1;align=center;fontStyle=4" vertex="1" parent="1">
          <mxGeometry x="-67" y="365" width="100" height="40" as="geometry" />
        </mxCell>
        <mxCell id="dxI1CbYiC7R-kg2dkJQ_-37" style="edgeStyle=none;curved=1;rounded=0;orthogonalLoop=1;jettySize=auto;html=1;exitX=0;exitY=0;exitDx=0;exitDy=0;entryX=0.75;entryY=1;entryDx=0;entryDy=0;fontSize=12;startSize=8;endSize=8;" edge="1" parent="1" source="dxI1CbYiC7R-kg2dkJQ_-33" target="dxI1CbYiC7R-kg2dkJQ_-3">
          <mxGeometry relative="1" as="geometry" />
        </mxCell>
        <mxCell id="dxI1CbYiC7R-kg2dkJQ_-33" value="Phone" style="ellipse;shape=doubleEllipse;margin=3;whiteSpace=wrap;html=1;align=center;" vertex="1" parent="1">
          <mxGeometry x="159" y="365" width="100" height="40" as="geometry" />
        </mxCell>
        <mxCell id="dxI1CbYiC7R-kg2dkJQ_-38" style="edgeStyle=none;curved=1;rounded=0;orthogonalLoop=1;jettySize=auto;html=1;exitX=0;exitY=0.5;exitDx=0;exitDy=0;entryX=1;entryY=0.75;entryDx=0;entryDy=0;fontSize=12;startSize=8;endSize=8;" edge="1" parent="1" source="dxI1CbYiC7R-kg2dkJQ_-34" target="dxI1CbYiC7R-kg2dkJQ_-3">
          <mxGeometry relative="1" as="geometry" />
        </mxCell>
        <mxCell id="dxI1CbYiC7R-kg2dkJQ_-34" value="Email" style="ellipse;shape=doubleEllipse;margin=3;whiteSpace=wrap;html=1;align=center;" vertex="1" parent="1">
          <mxGeometry x="205" y="318" width="100" height="40" as="geometry" />
        </mxCell>
        <mxCell id="dxI1CbYiC7R-kg2dkJQ_-36" style="edgeStyle=none;curved=1;rounded=0;orthogonalLoop=1;jettySize=auto;html=1;exitX=0.5;exitY=0;exitDx=0;exitDy=0;entryX=0.42;entryY=0.9;entryDx=0;entryDy=0;entryPerimeter=0;fontSize=12;startSize=8;endSize=8;" edge="1" parent="1" source="dxI1CbYiC7R-kg2dkJQ_-31" target="dxI1CbYiC7R-kg2dkJQ_-3">
          <mxGeometry relative="1" as="geometry" />
        </mxCell>
        <mxCell id="dxI1CbYiC7R-kg2dkJQ_-39" value="Location" style="ellipse;shape=doubleEllipse;margin=3;whiteSpace=wrap;html=1;align=center;" vertex="1" parent="1">
          <mxGeometry x="154" y="-35" width="100" height="40" as="geometry" />
        </mxCell>
        <mxCell id="dxI1CbYiC7R-kg2dkJQ_-65" style="edgeStyle=none;curved=1;rounded=0;orthogonalLoop=1;jettySize=auto;html=1;exitX=0.5;exitY=1;exitDx=0;exitDy=0;entryX=0.5;entryY=0;entryDx=0;entryDy=0;fontSize=12;startSize=8;endSize=8;endArrow=none;startFill=0;" edge="1" parent="1" source="dxI1CbYiC7R-kg2dkJQ_-41" target="dxI1CbYiC7R-kg2dkJQ_-3">
          <mxGeometry relative="1" as="geometry" />
        </mxCell>
        <mxCell id="dxI1CbYiC7R-kg2dkJQ_-82" value="M" style="edgeLabel;html=1;align=center;verticalAlign=middle;resizable=0;points=[];fontSize=12;" vertex="1" connectable="0" parent="dxI1CbYiC7R-kg2dkJQ_-65">
          <mxGeometry x="0.488" y="1" relative="1" as="geometry">
            <mxPoint as="offset" />
          </mxGeometry>
        </mxCell>
        <mxCell id="dxI1CbYiC7R-kg2dkJQ_-66" style="edgeStyle=none;curved=1;rounded=0;orthogonalLoop=1;jettySize=auto;html=1;exitX=0;exitY=0;exitDx=0;exitDy=0;entryX=1;entryY=0.75;entryDx=0;entryDy=0;fontSize=12;startSize=8;endSize=8;endArrow=none;startFill=0;" edge="1" parent="1" source="dxI1CbYiC7R-kg2dkJQ_-41" target="dxI1CbYiC7R-kg2dkJQ_-6">
          <mxGeometry relative="1" as="geometry" />
        </mxCell>
        <mxCell id="dxI1CbYiC7R-kg2dkJQ_-83" value="N" style="edgeLabel;html=1;align=center;verticalAlign=middle;resizable=0;points=[];fontSize=12;" vertex="1" connectable="0" parent="dxI1CbYiC7R-kg2dkJQ_-66">
          <mxGeometry x="0.6142" relative="1" as="geometry">
            <mxPoint as="offset" />
          </mxGeometry>
        </mxCell>
        <mxCell id="dxI1CbYiC7R-kg2dkJQ_-41" value="Booking" style="shape=rhombus;perimeter=rhombusPerimeter;whiteSpace=wrap;html=1;align=center;" vertex="1" parent="1">
          <mxGeometry x="71" y="156" width="75" height="52" as="geometry" />
        </mxCell>
        <mxCell id="dxI1CbYiC7R-kg2dkJQ_-69" style="edgeStyle=none;curved=1;rounded=0;orthogonalLoop=1;jettySize=auto;html=1;exitX=1;exitY=0;exitDx=0;exitDy=0;entryX=0;entryY=1;entryDx=0;entryDy=0;fontSize=12;startSize=8;endSize=8;" edge="1" parent="1" source="dxI1CbYiC7R-kg2dkJQ_-46" target="dxI1CbYiC7R-kg2dkJQ_-41">
          <mxGeometry relative="1" as="geometry" />
        </mxCell>
        <mxCell id="dxI1CbYiC7R-kg2dkJQ_-46" value="Check out" style="ellipse;whiteSpace=wrap;html=1;align=center;" vertex="1" parent="1">
          <mxGeometry x="-3" y="208" width="74" height="28" as="geometry" />
        </mxCell>
        <mxCell id="dxI1CbYiC7R-kg2dkJQ_-55" style="edgeStyle=none;curved=1;rounded=0;orthogonalLoop=1;jettySize=auto;html=1;exitX=0;exitY=1;exitDx=0;exitDy=0;entryX=0.75;entryY=0;entryDx=0;entryDy=0;fontSize=12;endArrow=none;startFill=0;shape=link;" edge="1" parent="1" source="dxI1CbYiC7R-kg2dkJQ_-54" target="dxI1CbYiC7R-kg2dkJQ_-6">
          <mxGeometry relative="1" as="geometry" />
        </mxCell>
        <mxCell id="dxI1CbYiC7R-kg2dkJQ_-84" value="M" style="edgeLabel;html=1;align=center;verticalAlign=middle;resizable=0;points=[];fontSize=12;" vertex="1" connectable="0" parent="dxI1CbYiC7R-kg2dkJQ_-55">
          <mxGeometry x="0.1481" y="2" relative="1" as="geometry">
            <mxPoint x="1" y="-2" as="offset" />
          </mxGeometry>
        </mxCell>
        <mxCell id="dxI1CbYiC7R-kg2dkJQ_-56" value="1" style="edgeStyle=none;curved=1;rounded=0;orthogonalLoop=1;jettySize=auto;html=1;exitX=1;exitY=0;exitDx=0;exitDy=0;entryX=0;entryY=0.75;entryDx=0;entryDy=0;fontSize=12;endArrow=none;startFill=0;shape=link;" edge="1" parent="1" source="dxI1CbYiC7R-kg2dkJQ_-54" target="dxI1CbYiC7R-kg2dkJQ_-1">
          <mxGeometry relative="1" as="geometry" />
        </mxCell>
        <mxCell id="dxI1CbYiC7R-kg2dkJQ_-54" value="Assign" style="shape=rhombus;perimeter=rhombusPerimeter;whiteSpace=wrap;html=1;align=center;" vertex="1" parent="1">
          <mxGeometry x="-39" y="69" width="76" height="46" as="geometry" />
        </mxCell>
        <mxCell id="dxI1CbYiC7R-kg2dkJQ_-67" style="edgeStyle=none;curved=1;rounded=0;orthogonalLoop=1;jettySize=auto;html=1;exitX=0;exitY=0;exitDx=0;exitDy=0;entryX=1;entryY=1;entryDx=0;entryDy=0;fontSize=12;startSize=8;endSize=8;" edge="1" parent="1" source="dxI1CbYiC7R-kg2dkJQ_-62" target="dxI1CbYiC7R-kg2dkJQ_-41">
          <mxGeometry relative="1" as="geometry" />
        </mxCell>
        <mxCell id="dxI1CbYiC7R-kg2dkJQ_-62" value="Availabilty" style="ellipse;whiteSpace=wrap;html=1;align=center;" vertex="1" parent="1">
          <mxGeometry x="161" y="204" width="75" height="28" as="geometry" />
        </mxCell>
        <mxCell id="dxI1CbYiC7R-kg2dkJQ_-70" style="edgeStyle=none;curved=1;rounded=0;orthogonalLoop=1;jettySize=auto;html=1;exitX=0.5;exitY=1;exitDx=0;exitDy=0;entryX=0.5;entryY=0;entryDx=0;entryDy=0;fontSize=12;startSize=8;endSize=8;" edge="1" parent="1" source="dxI1CbYiC7R-kg2dkJQ_-68" target="dxI1CbYiC7R-kg2dkJQ_-41">
          <mxGeometry relative="1" as="geometry" />
        </mxCell>
        <mxCell id="dxI1CbYiC7R-kg2dkJQ_-68" value="Check in" style="ellipse;whiteSpace=wrap;html=1;align=center;" vertex="1" parent="1">
          <mxGeometry x="77" y="100" width="63" height="30" as="geometry" />
        </mxCell>
        <mxCell id="dxI1CbYiC7R-kg2dkJQ_-77" style="edgeStyle=none;curved=1;rounded=0;orthogonalLoop=1;jettySize=auto;html=1;exitX=1;exitY=1;exitDx=0;exitDy=0;entryX=0;entryY=0.25;entryDx=0;entryDy=0;fontSize=12;startSize=8;endSize=8;" edge="1" parent="1" source="dxI1CbYiC7R-kg2dkJQ_-71" target="dxI1CbYiC7R-kg2dkJQ_-6">
          <mxGeometry relative="1" as="geometry" />
        </mxCell>
        <mxCell id="dxI1CbYiC7R-kg2dkJQ_-71" value="Name" style="ellipse;whiteSpace=wrap;html=1;align=center;" vertex="1" parent="1">
          <mxGeometry x="-263" y="102" width="100" height="40" as="geometry" />
        </mxCell>
        <mxCell id="dxI1CbYiC7R-kg2dkJQ_-78" style="edgeStyle=none;curved=1;rounded=0;orthogonalLoop=1;jettySize=auto;html=1;exitX=1;exitY=0.5;exitDx=0;exitDy=0;entryX=0;entryY=0.75;entryDx=0;entryDy=0;fontSize=12;startSize=8;endSize=8;" edge="1" parent="1" source="dxI1CbYiC7R-kg2dkJQ_-72" target="dxI1CbYiC7R-kg2dkJQ_-6">
          <mxGeometry relative="1" as="geometry" />
        </mxCell>
        <mxCell id="dxI1CbYiC7R-kg2dkJQ_-72" value="Job title" style="ellipse;whiteSpace=wrap;html=1;align=center;" vertex="1" parent="1">
          <mxGeometry x="-272" y="151" width="100" height="40" as="geometry" />
        </mxCell>
        <mxCell id="dxI1CbYiC7R-kg2dkJQ_-74" value="Salary" style="ellipse;whiteSpace=wrap;html=1;align=center;dashed=1;" vertex="1" parent="1">
          <mxGeometry x="-245" y="202" width="100" height="40" as="geometry" />
        </mxCell>
        <mxCell id="dxI1CbYiC7R-kg2dkJQ_-75" style="edgeStyle=none;curved=1;rounded=0;orthogonalLoop=1;jettySize=auto;html=1;exitX=1;exitY=0;exitDx=0;exitDy=0;entryX=0.17;entryY=1;entryDx=0;entryDy=0;entryPerimeter=0;fontSize=12;startSize=8;endSize=8;" edge="1" parent="1" source="dxI1CbYiC7R-kg2dkJQ_-74" target="dxI1CbYiC7R-kg2dkJQ_-6">
          <mxGeometry relative="1" as="geometry" />
        </mxCell>
        <mxCell id="dxI1CbYiC7R-kg2dkJQ_-76" style="edgeStyle=none;curved=1;rounded=0;orthogonalLoop=1;jettySize=auto;html=1;exitX=1;exitY=1;exitDx=0;exitDy=0;entryX=0.37;entryY=0;entryDx=0;entryDy=0;entryPerimeter=0;fontSize=12;startSize=8;endSize=8;" edge="1" parent="1" source="dxI1CbYiC7R-kg2dkJQ_-11" target="dxI1CbYiC7R-kg2dkJQ_-6">
          <mxGeometry relative="1" as="geometry" />
        </mxCell>
      </root>
    </mxGraphModel>
  </diagram>
</mxfile>
